RobotoCondensed-Italic.ufo
<glyph name="uni02E8" format="2">
  <advance width="612"/>
  <unicode hex="02E8"/>
  <outline>
    <contour>
      <point x="441" y="1456" type="line"/>
      <point x="264" y="1456" type="line"/>
      <point x="264" y="0" type="line"/>
      <point x="441" y="0" type="line"/>
    </contour>
    <contour>
      <point x="396" y="439" type="line"/>
      <point x="54" y="439" type="line"/>
      <point x="54" y="287" type="line"/>
      <point x="396" y="287" type="line"/>
    </contour>
  </outline>
</glyph>
<glyph name="ringlefthalfsubnosp" format="2">
  <unicode hex="031C"/>
  <anchor x="-490.3142766814655" y="-9" name="_bottom"/>
  <anchor x="-571.8674106611892" y="-481" name="bottom"/>
  <outline>
    <contour>
      <point x="-507.40147700793955" y="-473.3408407805644" type="line"/>
      <point x="-605.0107760090164" y="-462.04282030728996"/>
      <point x="-653.1802193707649" y="-386.4814963787504"/>
      <point x="-641.7059106405181" y="-289.7441397428733" type="curve" smooth="yes"/>
      <point x="-628.5816977637762" y="-179.09680651609514"/>
      <point x="-545.4791566551854" y="-91.845519063767"/>
      <point x="-434.07567907111746" y="-82.76328959524434" type="curve"/>
      <point x="-452.2588506590929" y="-176.08887756698803" type="line"/>
      <point x="-509.8562156659312" y="-186.75303885925317"/>
      <point x="-547.9835215946126" y="-224.6510309449277"/>
      <point x="-552.8066328459793" y="-285.7397327955883" type="curve" smooth="yes"/>
      <point x="-556.4747655355409" y="-332.1996738052006"/>
      <point x="-534.9944717166285" y="-374.4494310475628"/>
      <point x="-487.6064105818274" y="-382.0447799075706" type="curve"/>
    </contour>
  </outline>
</glyph>
<glyph name="linevertsubnosp" format="2">
  <unicode hex="0329"/>
  <anchor x="-645.9996671693201" y="-489" name="bottom"/>
  <anchor x="-566.3592381098183" y="0" name="_bottom"/>
  <outline>
    <contour>
      <point x="-511.64077723478596" y="-81.06715868812603" type="line"/>
      <point x="-641.0132557350111" y="-81.05969159488359" type="line"/>
      <point x="-712.4701599541816" y="-488.93390854998256" type="line"/>
      <point x="-583.097681453957" y="-488.94137564322955" type="line"/>
    </contour>
  </outline>
</glyph>
<glyph name="uni036A" format="2">
  <unicode hex="036A"/>
  <anchor x="-344.8042237956726" y="1170" name="_top"/>
  <anchor x="-198.28503393379611" y="2018" name="_mkmktop"/>
  <outline>
    <contour>
      <point x="-282.0837097056991" y="1992.9290302390377" type="line"/>
      <point x="-395.9368394864233" y="1992.9344922022524" type="line"/>
      <point x="-533.9485035719183" y="1201.0705791700525" type="line"/>
      <point x="-420.09537379119524" y="1201.0651172068306" type="line"/>
    </contour>
    <contour>
      <point x="-389.46161673525023" y="1495.3643975533062" type="line"/>
      <point x="-373.672175400487" y="1562.8901136644154"/>
      <point x="-348.72238042778633" y="1661.2931991197252"/>
      <point x="-261.0342031465798" y="1659.3812568969674" type="curve" smooth="yes"/>
      <point x="-193.1859000102264" y="1657.901900847715"/>
      <point x="-205.01641573140665" y="1571.3715370169218"/>
      <point x="-209.7595531761229" y="1525.4162780296697" type="curve"/>
      <point x="-259.7417841240815" y="1201.113153237279" type="line"/>
      <point x="-146.32593228036419" y="1200.973397008339" type="line"/>
      <point x="-97.44658134859552" y="1522.9251240770054" type="line"/>
      <point x="-89.5486760518154" y="1624.349185986758"/>
      <point x="-104.62963494920103" y="1759.9155098063031"/>
      <point x="-234.14430454148453" y="1760.6648886135074" type="curve" smooth="yes"/>
      <point x="-378.1281505962024" y="1761.497986849814"/>
      <point x="-411.22894066226075" y="1609.31840150936"/>
      <point x="-426.0421004076549" y="1495.13602441904" type="curve"/>
    </contour>
  </outline>
</glyph>
<glyph name="uni0484" format="2">
  <unicode hex="0484"/>
  <anchor x="-237.5585825253454" y="1190" name="_top"/>
  <outline>
    <contour>
      <point x="-589.5262461003088" y="1430.44561345019" type="line"/>
      <point x="-602.0328837007772" y="1303.0719670445335" type="line"/>
      <point x="-556.1036344158817" y="1303.1583986401386" type="line" smooth="yes"/>
      <point x="-413.589335665549" y="1306.1047286096214"/>
      <point x="-285.44698735432996" y="1433.485907253346"/>
      <point x="-153.80843095362704" y="1427.014774521439" type="curve" smooth="yes"/>
      <point x="-95.75497743994958" y="1424.1609631951503"/>
      <point x="-91.16311952983538" y="1369.4353071178293"/>
      <point x="-95.1649590156233" y="1322.5388407609064" type="curve" smooth="yes"/>
      <point x="-97.48395035211477" y="1303.1435510579772" type="line"/>
      <point x="16.8757883363033" y="1302.4869629530958" type="line"/>
      <point x="20.103308164480097" y="1340.5116405526123" type="line" smooth="yes"/>
      <point x="27.056885422971142" y="1458.252692987249"/>
      <point x="-22.87887426416802" y="1554.6005814962807"/>
      <point x="-151.05447807649642" y="1555.4756892979988" type="curve" smooth="yes"/>
      <point x="-293.7592971795315" y="1556.449994055109"/>
      <point x="-406.99469763022216" y="1433.1884034196219"/>
      <point x="-554.3054824323749" y="1430.3288737041914" type="curve" smooth="yes"/>
    </contour>
  </outline>
</glyph>
<glyph name="uni0487" format="2">
  <unicode hex="0487"/>
  <anchor x="-358.8085825253454" y="1190" name="_top"/>
  <outline>
    <contour>
      <point x="-103.69477006969997" y="1431.687058470901" type="line"/>
      <point x="-210.15735426402006" y="1438.8016146093087"/>
      <point x="-272.97804627303015" y="1556.8315651072883"/>
      <point x="-395.2421855731295" y="1558.842353694373" type="curve" smooth="yes"/>
      <point x="-533.5337997524695" y="1561.116734400549"/>
      <point x="-633.5193080906564" y="1477.8668109294213"/>
      <point x="-647.1635538617405" y="1340.176861333225" type="curve" smooth="yes"/>
      <point x="-650.1116406747296" y="1303.6311853034426" type="line"/>
      <point x="-534.365418470268" y="1302.9702407547318" type="line"/>
      <point x="-532.1473024148506" y="1321.487063157782" type="line"/>
      <point x="-519.9843382048256" y="1383.120327229726"/>
      <point x="-471.8525276946498" y="1430.1932089071108"/>
      <point x="-407.21062205791503" y="1430.8000109723043" type="curve" smooth="yes"/>
      <point x="-286.5776787527597" y="1431.9324082679425"/>
      <point x="-228.18560745024595" y="1309.8686248523181"/>
      <point x="-115.64277270605098" y="1304.4960111523508" type="curve" smooth="yes"/>
      <point x="18.738501124915246" y="1304.0860839613433" type="line"/>
      <point x="41.48312935416784" y="1430.9421920365935" type="line"/>
    </contour>
  </outline>
</glyph>
<glyph name="uni1DC6" format="2">
  <unicode hex="1DC6"/>
  <anchor x="-294.3642237956726" y="1170" name="_top"/>
  <outline>
    <contour>
      <point x="-533.8007394395528" y="1392.0989522378673" type="line"/>
      <point x="-223.07283625091696" y="1391.9419587857024" type="line"/>
      <point x="-143.29435740573263" y="1241.0603365302711" type="line"/>
      <point x="-9.962128420622946" y="1240.989662770111" type="line"/>
      <point x="-117.55430516185403" y="1533.961594856191" type="line"/>
      <point x="-508.468801827954" y="1533.947002312884" type="line"/>
    </contour>
  </outline>
</glyph>
<glyph name="uni1DC8" format="2">
  <unicode hex="1DC8"/>
  <anchor x="-325.40422379567264" y="1170" name="_top"/>
  <outline>
    <contour>
      <point x="-483.7732913493552" y="1240.9633063121264" type="line"/>
      <point x="-309.14169319969574" y="1241.4468186649426" type="line"/>
      <point x="-168.4751406420569" y="1419.5008017178702" type="line"/>
      <point x="-98.79613690851922" y="1240.9081168133318" type="line"/>
      <point x="27.083213824381644" y="1240.985284747865" type="line"/>
      <point x="-36.45477976843226" y="1534.089397710745" type="line"/>
      <point x="-274.7465542325284" y="1533.5518350706504" type="line"/>
      <point x="-381.16187025706176" y="1368.8914526625695" type="line"/>
      <point x="-421.88691265545964" y="1534.1414793637118" type="line"/>
      <point x="-601.8554569517327" y="1533.9762560223355" type="line"/>
    </contour>
  </outline>
</glyph>
<glyph name="uni1DD4" format="2">
  <unicode hex="1DD4"/>
  <anchor x="-367.1142237956726" y="1170" name="_top"/>
  <outline>
    <contour>
      <point x="-381.06167473174673" y="1460.782775834423" type="line"/>
      <point x="-264.7572584227257" y="1476.013881539536" type="line"/>
      <point x="-254.43627015525317" y="1561.4943879407172" type="line" smooth="yes"/>
      <point x="-246.8497251345179" y="1669.1571419861896"/>
      <point x="-299.06249685345716" y="1759.4583984161936"/>
      <point x="-415.35550976971456" y="1760.451939627675" type="curve" smooth="yes"/>
      <point x="-520.6857806674589" y="1761.3518214204769"/>
      <point x="-593.1238495494873" y="1695.4118854191966"/>
      <point x="-604.5596816902963" y="1592.7878083855219" type="curve"/>
      <point x="-496.3562757131453" y="1583.4485028822014" type="line"/>
      <point x="-481.5425849658203" y="1624.0227621293009"/>
      <point x="-456.19149745385016" y="1658.2803953285352"/>
      <point x="-407.6598296857241" y="1656.3583252085425" type="curve" smooth="yes"/>
      <point x="-358.3550359427892" y="1654.4056358577773"/>
      <point x="-360.31690515932974" y="1602.159113927611"/>
      <point x="-364.08515492748626" y="1565.1907446778541" type="curve"/>
    </contour>
    <contour>
      <point x="-361.68533355267476" y="1524.0341599125709" type="line"/>
      <point x="-455.64951724395326" y="1523.9070027637686" type="line" smooth="yes"/>
      <point x="-565.8724725859138" y="1521.2200978221358"/>
      <point x="-670.5945921345582" y="1473.0668991090163"/>
      <point x="-673.6849543361715" y="1349.506488146638" type="curve" smooth="yes"/>
      <point x="-675.9087215098643" y="1260.594714076049"/>
      <point x="-620.2524590535952" y="1188.8234826755202"/>
      <point x="-527.5947705679317" y="1189.6091296845834" type="curve" smooth="yes"/>
      <point x="-448.00620135729366" y="1190.2839632831535"/>
      <point x="-396.95922102153094" y="1249.4564492052818"/>
      <point x="-365.54385205283086" y="1316.1152925935985" type="curve"/>
      <point x="-374.8803448931478" y="1388.124499260843" type="line"/>
      <point x="-401.2156465102554" y="1343.6417140707297"/>
      <point x="-448.2930657852106" y="1287.6092508376244"/>
      <point x="-506.4528126570895" y="1289.382244860642" type="curve" smooth="yes"/>
      <point x="-544.1093373734515" y="1290.5302002222224"/>
      <point x="-562.5754012171966" y="1313.9759820086927"/>
      <point x="-558.1938161924572" y="1351.147454039458" type="curve" smooth="yes"/>
      <point x="-551.6937378112455" y="1406.2913073210377"/>
      <point x="-503.66634642963623" y="1436.7541035668378"/>
      <point x="-452.5103167824272" y="1441.0890925740416" type="curve"/>
      <point x="-367.1746060886671" y="1440.925797377548" type="line"/>
    </contour>
    <contour>
      <point x="-187.14095598990858" y="1187.614413180371" type="curve" smooth="yes"/>
      <point x="-110.55838372128898" y="1187.2253683601693"/>
      <point x="-48.91687438347724" y="1226.9756815366156"/>
      <point x="-8.536326480813983" y="1289.9494425848807" type="curve"/>
      <point x="-67.71789071921107" y="1353.839171964322" type="line"/>
      <point x="-99.70035121150079" y="1317.6787503369203"/>
      <point x="-136.40686266716324" y="1291.117240641115"/>
      <point x="-187.042705902228" y="1292.3972319941458" type="curve" smooth="yes"/>
      <point x="-271.629960455374" y="1294.53545953194"/>
      <point x="-269.6337316061871" y="1389.012702184138"/>
      <point x="-265.6240612424875" y="1451.7926326646098" type="curve" smooth="yes"/>
      <point x="-264.16846477915124" y="1473.0205221804295" type="line" smooth="yes"/>
      <point x="-257.17194774615575" y="1541.5700658172696"/>
      <point x="-235.35829441595766" y="1659.3233127185954"/>
      <point x="-144.4694473424238" y="1658.035516843726" type="curve" smooth="yes"/>
      <point x="-74.94561390914828" y="1657.050439919733"/>
      <point x="-66.6387467272704" y="1588.4547110249207"/>
      <point x="-73.94352413663186" y="1532.806869361403" type="curve"/>
      <point x="-76.15467555488557" y="1521.6011932241984" type="line"/>
      <point x="-307.3770708500694" y="1524.1712234087317" type="line"/>
      <point x="-322.6797050881282" y="1442.159770251689" type="line"/>
      <point x="23.479885414328905" y="1441.7352718669442" type="line"/>
      <point x="27.21282097428569" y="1490.8783645953652" type="line" smooth="yes"/>
      <point x="33.443718017889964" y="1611.6773467944467"/>
      <point x="-1.2289877092507027" y="1756.4349259643107"/>
      <point x="-146.6353970869547" y="1759.9316348078214" type="curve" smooth="yes"/>
      <point x="-300.3967166293506" y="1763.6292611238468"/>
      <point x="-368.5820253401844" y="1605.1035017759139"/>
      <point x="-377.160122835308" y="1474.4982957039824" type="curve" smooth="yes"/>
      <point x="-378.011106015553" y="1451.3772055919344" type="line" smooth="yes"/>
      <point x="-381.5936841606023" y="1325.4789308134439"/>
      <point x="-334.8905780794613" y="1188.3649915881983"/>
    </contour>
  </outline>
</glyph>
<glyph name="uni1DDE" format="2">
  <unicode hex="1DDE"/>
  <anchor x="-343.83422379567264" y="1170" name="_top"/>
  <outline>
    <contour>
      <point x="-155.27561331824901" y="1302.9229480244921" type="line"/>
      <point x="-391.35001694889553" y="1302.927349802503" type="line"/>
      <point x="-409.7598856650441" y="1201.0762570408722" type="line"/>
      <point x="-173.6854820343969" y="1201.0718552628566" type="line"/>
    </contour>
    <contour>
      <point x="-285.1620502585851" y="1795.9360270499058" type="line"/>
      <point x="-399.01418484158654" y="1795.9430546722435" type="line"/>
      <point x="-502.92005145499195" y="1201.06302150478" type="line"/>
      <point x="-389.06791687199035" y="1201.0559938824426" type="line"/>
    </contour>
  </outline>
</glyph>
<glyph name="uni1DE9" format="2">
  <unicode hex="1DE9"/>
  <anchor x="-391.9827387204872" y="998" name="_top"/>
  <outline>
    <contour>
      <point x="-330.8294995268249" y="1621.5556618565731" type="line"/>
      <point x="-336.37682917995943" y="1550.9843894928476" type="line"/>
      <point x="-277.6853362538067" y="1550.3823232743737" type="line"/>
      <point x="-210.47433888448478" y="1545.332354694442"/>
      <point x="-200.5926749204332" y="1481.1616304490854"/>
      <point x="-207.07720554918333" y="1423.835460683312" type="curve" smooth="yes"/>
      <point x="-215.34237741843816" y="1350.7676207968775"/>
      <point x="-257.7291126720406" y="1287.1635705258468"/>
      <point x="-337.36331135630684" y="1287.39540283939" type="curve" smooth="yes"/>
      <point x="-409.96874698667955" y="1287.6067729089846"/>
      <point x="-448.1526360429733" y="1340.1543322660843"/>
      <point x="-452.82157561900914" y="1407.0367005002017" type="curve"/>
      <point x="-489.8833758012064" y="1381.7194460493074" type="line"/>
      <point x="-494.03223235515566" y="1273.2536717169637"/>
      <point x="-438.6737542661528" y="1192.2616691682058"/>
      <point x="-323.5578439656845" y="1190.0328139499245" type="curve" smooth="yes"/>
      <point x="-186.3788273569435" y="1187.3767765159241"/>
      <point x="-101.23758425392401" y="1291.9599435069197"/>
      <point x="-97.97041953131922" y="1423.6806421013691" type="curve" smooth="yes"/>
      <point x="-95.18375077109538" y="1536.0294175727722"/>
      <point x="-164.82843035437278" y="1617.004349416519"/>
      <point x="-277.9228356116299" y="1621.3017225131234" type="curve" smooth="yes"/>
    </contour>
    <contour>
      <point x="-256.73648032421073" y="1957.3061648517003" type="curve" smooth="yes"/>
      <point x="-396.3463376580277" y="1959.809018867829"/>
      <point x="-479.8417042137404" y="1852.661198096697"/>
      <point x="-495.1158426245186" y="1722.6952832882946" type="curve" smooth="yes"/>
      <point x="-612.5114977366674" y="1005.0662814935033" type="line"/>
      <point x="-497.71069848153365" y="1005.0535757772615" type="line"/>
      <point x="-378.26487317242015" y="1723.1007804397182" type="line" smooth="yes"/>
      <point x="-367.6823641486294" y="1786.033515712181"/>
      <point x="-333.9511661467642" y="1864.921422918275"/>
      <point x="-257.6440825858328" y="1862.4689119207646" type="curve" smooth="yes"/>
      <point x="-202.89574363463691" y="1860.709299351297"/>
      <point x="-179.4717842394359" y="1814.0336410967398"/>
      <point x="-183.94079118771887" y="1764.0677162755173" type="curve" smooth="yes"/>
      <point x="-189.8877319721009" y="1697.57768849365"/>
      <point x="-226.2600739089164" y="1649.6866304666391"/>
      <point x="-294.4735993561402" y="1644.4666482032317" type="curve"/>
      <point x="-325.2214719710466" y="1644.3593106218966" type="line"/>
      <point x="-331.7693647984243" y="1576.1246818256288" type="line"/>
      <point x="-288.44774443653597" y="1576.0073807365445" type="line" smooth="yes"/>
      <point x="-171.49578760315944" y="1579.0445433585965"/>
      <point x="-78.98033792199716" y="1648.6463462933589"/>
      <point x="-75.70684362697568" y="1771.671433895826" type="curve" smooth="yes"/>
      <point x="-72.82224573086195" y="1880.0809427827069"/>
      <point x="-149.89806331380592" y="1955.3908204326312"/>
    </contour>
  </outline>
</glyph>
<glyph name="afii61664" format="2">
  <unicode hex="200C"/>
  <outline>
    <contour>
      <point x="-652.5067156582384" y="-199.94134044557615" type="line"/>
      <point x="-546.4145612935149" y="-199.94832287085234" type="line"/>
      <point x="-290.08534838213205" y="1274.938778915203" type="line"/>
      <point x="-396.17750274685574" y="1274.945761340475" type="line"/>
    </contour>
  </outline>
</glyph>
<glyph name="uni20F0" format="2">
  <unicode hex="20F0"/>
  <anchor x="-343.83422379567264" y="1170" name="_top"/>
  <outline>
    <contour>
      <point x="-397.7916789577304" y="1250.074761213252" type="line"/>
      <point x="-257.6638718116915" y="1250.0622999242164" type="line"/>
      <point x="-217.77970473531968" y="1511.6634312983597" type="line"/>
      <point x="-68.49291875522341" y="1373.8095929868618" type="line"/>
      <point x="17.595088196023895" y="1498.1795721064057" type="line"/>
      <point x="-133.9269187173068" y="1622.364168718321" type="line"/>
      <point x="56.942649256749874" y="1742.03382041319" type="line"/>
      <point x="6.6839850115145225" y="1886.055219387908" type="line"/>
      <point x="-175.92069174846912" y="1759.0284911305544" type="line"/>
      <point x="-126.36791256425833" y="2004.9242950654427" type="line"/>
      <point x="-266.49880764314787" y="2004.9342116216005" type="line"/>
      <point x="-306.387613178812" y="1743.3056870344128" type="line"/>
      <point x="-455.4671400449751" y="1882.1830270548953" type="line"/>
      <point x="-541.8106627972245" y="1756.7394579407883" type="line"/>
      <point x="-389.0356140207366" y="1634.6087661137196" type="line"/>
      <point x="-581.1837136645858" y="1512.9711084434487" type="line"/>
      <point x="-530.7055130838761" y="1370.0100742512786" type="line"/>
      <point x="-348.26374925260393" y="1495.9685342933874" type="line"/>
    </contour>
  </outline>
</glyph>
<glyph name="uni2DE7" format="2">
  <unicode hex="2DE7"/>
  <anchor x="-367.1142237956726" y="1170" name="_top"/>
  <outline>
    <contour>
      <point x="-168.47558387091226" y="1752.9172166572214" type="line"/>
      <point x="-374.4782141925818" y="1752.9206324654313" type="line"/>
      <point x="-392.92358837964" y="1651.0824593224868" type="line"/>
      <point x="-186.920958057968" y="1651.079043514285" type="line"/>
    </contour>
    <contour>
      <point x="-65.6429271326393" y="1752.9326308609293" type="line"/>
      <point x="-179.49532086369197" y="1752.9375273450773" type="line"/>
      <point x="-275.9292864156561" y="1201.0670879534264" type="line"/>
      <point x="-162.0768926846029" y="1201.0621914692822" type="line"/>
    </contour>
    <contour>
      <point x="-404.94243814463033" y="1753.0115262174752" type="line"/>
      <point x="-450.46220619288266" y="1517.1263061475215" type="line" smooth="yes"/>
      <point x="-462.82114872807455" y="1444.8584103423223"/>
      <point x="-469.47804116117834" y="1325.8976689556148"/>
      <point x="-561.554337225415" y="1313.8496034353566" type="curve"/>
      <point x="-577.6217622008878" y="1312.772467899125" type="line"/>
      <point x="-587.1646960354302" y="1198.6914192690028" type="line"/>
      <point x="-559.1565000148152" y="1198.5327238519696" type="line" smooth="yes"/>
      <point x="-389.3126647255337" y="1202.0940385470833"/>
      <point x="-364.4838836694007" y="1381.9888512048926"/>
      <point x="-343.31943833800545" y="1516.8432618780494" type="curve" smooth="yes"/>
      <point x="-298.23868163998833" y="1752.9101703886224" type="line"/>
    </contour>
  </outline>
</glyph>
<glyph name="uni2DF3" format="2">
  <unicode hex="2DF3"/>
  <anchor x="-369.0542237956726" y="1170" name="_top"/>
  <outline>
    <contour>
      <point x="-555.3467763464544" y="1302.9354888742648" type="line"/>
      <point x="-573.6255064902606" y="1201.0792655732787" type="line"/>
      <point x="-102.45618173025301" y="1200.9056011697758" type="line"/>
      <point x="-131.7737419697008" y="1038.080000034822" type="line"/>
      <point x="-39.21841195309756" y="1038.079128261007" type="line"/>
      <point x="7.637329011414693" y="1302.9068050161573" type="line"/>
    </contour>
    <contour>
      <point x="-212.11251946436363" y="1752.936402779649" type="line"/>
      <point x="-325.9643755469431" y="1752.943404676301" type="line"/>
      <point x="-422.39958314395875" y="1201.0626013204815" type="line"/>
      <point x="-308.5477270613671" y="1201.0555994238273" type="line"/>
    </contour>
    <contour>
      <point x="25.53728589370583" y="1752.9363795467757" type="line"/>
      <point x="-89.28457346081964" y="1752.9433692466914" type="line"/>
      <point x="-185.71977980826935" y="1201.0626245533676" type="line"/>
      <point x="-70.89792045374395" y="1201.0556348534521" type="line"/>
    </contour>
    <contour>
      <point x="-448.79232280000775" y="1752.9363795467907" type="line"/>
      <point x="-563.6141821546496" y="1752.9433692467005" type="line"/>
      <point x="-660.0493885021132" y="1201.06262455333" type="line"/>
      <point x="-545.2275291474715" y="1201.0556348534164" type="line"/>
    </contour>
  </outline>
</glyph>
<glyph name="uni2DFF" format="2">
  <unicode hex="2DFF"/>
  <anchor x="-337.0442237956726" y="1170" name="_top"/>
  <outline>
    <contour>
      <point x="-556.7084541806571" y="1509.965545796582" type="line"/>
      <point x="-570.1547995107857" y="1415.0511145505566" type="line"/>
      <point x="-242.96876935316664" y="1415.0321730125263" type="line"/>
      <point x="-229.70342242724308" y="1509.9874452425036" type="line"/>
    </contour>
    <contour>
      <point x="-604.3553568855608" y="1752.9328922312866" type="line"/>
      <point x="-700.7888772187082" y="1201.0743340630927" type="line"/>
      <point x="-585.9677861210499" y="1201.0687982213701" type="line"/>
      <point x="-489.53426578787685" y="1752.927356389567" type="line"/>
    </contour>
    <contour>
      <point x="-31.395062784176588" y="1752.7985498384753" type="line"/>
      <point x="-217.75977190077077" y="1466.32561740402" type="line"/>
      <point x="-207.36340545695055" y="1406.9963235815712" type="line"/>
      <point x="-154.3063059925994" y="1408.0282195977788" type="line"/>
      <point x="103.08985996027731" y="1752.5652263594068" type="line"/>
    </contour>
    <contour>
      <point x="-369.9536549484307" y="1752.9964585295209" type="line"/>
      <point x="-232.31280134217218" y="1406.4350861837422" type="line"/>
      <point x="-181.5558804523099" y="1407.5475803347758" type="line"/>
      <point x="-158.34693282098715" y="1461.588157109357" type="line"/>
      <point x="-256.75151372381526" y="1752.9031775819244" type="line"/>
    </contour>
    <contour>
      <point x="-289.6181201623862" y="1201.0933542122548" type="line"/>
      <point x="-184.4962322032231" y="1201.0886198419153" type="line"/>
      <point x="-130.63796883704768" y="1505.9081948924934" type="line"/>
      <point x="-235.75985679621039" y="1505.912929262835" type="line"/>
    </contour>
    <contour>
      <point x="-299.3827342081895" y="1754.2275747700508" type="line"/>
      <point x="-285.51994590608155" y="1657.2506731554583" type="line"/>
      <point x="-30.901314820625487" y="1658.5193606612827" type="line"/>
      <point x="5.997952953119892" y="1752.7046351699285" type="line"/>
    </contour>
    <contour>
      <point x="-401.53785149679015" y="1200.8413463909276" type="line"/>
      <point x="-390.3665170864803" y="1284.8915769674834" type="line" smooth="yes"/>
      <point x="-376.42845927233446" y="1369.4808740313988"/>
      <point x="-347.0407364606267" y="1417.5559961248853"/>
      <point x="-257.2007288776225" y="1417.3173352931847" type="curve" smooth="yes"/>
      <point x="-117.87788539442181" y="1413.3866900663138" type="line" smooth="yes"/>
      <point x="-40.944711675693284" y="1408.6941724107785"/>
      <point x="-46.51858609264886" y="1352.2621658820299"/>
      <point x="-55.292076964202415" y="1286.6996277810035" type="curve" smooth="yes"/>
      <point x="-69.1242474283682" y="1201.8679087660362" type="line"/>
      <point x="36.86166457295808" y="1200.735798885929" type="line"/>
      <point x="47.84245000331849" y="1284.8830686303718" type="line" smooth="yes"/>
      <point x="60.04345815332307" y="1415.6654582139356"/>
      <point x="12.68950381916008" y="1504.5653764281174"/>
      <point x="-125.12058212940639" y="1509.3824998099603" type="curve" smooth="yes"/>
      <point x="-261.9657953171058" y="1511.5798901689345" type="line" smooth="yes"/>
      <point x="-411.47787133560155" y="1511.4143564139276"/>
      <point x="-483.24033338623553" y="1429.809173179166"/>
      <point x="-498.32718222680046" y="1284.8502174546777" type="curve" smooth="yes"/>
      <point x="-506.02231340800955" y="1201.5515394077142" type="line"/>
    </contour>
  </outline>
</glyph>
<glyph name="uniA676" format="2">
  <unicode hex="A676"/>
  <anchor x="-356.44422379567266" y="1170" name="_top"/>
  <outline>
    <contour>
      <point x="-196.5929963756625" y="1752.92526989525" type="line"/>
      <point x="-310.44488526036866" y="1752.930992568474" type="line"/>
      <point x="-406.8796219840158" y="1201.0747829517895" type="line"/>
      <point x="-293.02773309929745" y="1201.069060278565" type="line"/>
    </contour>
    <contour>
      <point x="-379.5418576629494" y="1889.7688586630663" type="curve" smooth="yes"/>
      <point x="-382.905825757115" y="1851.5434311655401"/>
      <point x="-358.00288681952753" y="1818.1018756276649"/>
      <point x="-317.870202984819" y="1818.7683368299986" type="curve" smooth="yes"/>
      <point x="-280.9665492577778" y="1819.3811753218056"/>
      <point x="-253.65349287242788" y="1850.8740821134568"/>
      <point x="-250.25743115900508" y="1886.159267973645" type="curve" smooth="yes"/>
      <point x="-246.55921551526794" y="1924.583842481392"/>
      <point x="-270.75474664843557" y="1959.802428815117"/>
      <point x="-311.57911703657544" y="1959.2594972108413" type="curve" smooth="yes"/>
      <point x="-349.6279923920158" y="1958.7534774794601"/>
      <point x="-376.3689698183993" y="1925.8230039059968"/>
    </contour>
    <contour>
      <point x="-213.6698021317602" y="1889.8052896662007" type="curve" smooth="yes"/>
      <point x="-217.0591050535786" y="1851.3538052241943"/>
      <point x="-191.0586320922817" y="1818.0770536700345"/>
      <point x="-151.03597198259837" y="1818.7694480662476" type="curve" smooth="yes"/>
      <point x="-114.11958984005344" y="1819.4081036691962"/>
      <point x="-86.80114141294898" y="1850.8613213145088"/>
      <point x="-83.41657059066068" y="1886.1813515742974" type="curve" smooth="yes"/>
      <point x="-79.73310307328612" y="1924.6205484490902"/>
      <point x="-103.93464862323381" y="1959.7457488721639"/>
      <point x="-144.73707314027845" y="1959.2353111635027" type="curve" smooth="yes"/>
      <point x="-182.6904529403697" y="1958.760514960816"/>
      <point x="-210.47593971217202" y="1926.0395106755218"/>
    </contour>
  </outline>
</glyph>
<glyph name="uniFE20" format="2">
  <unicode hex="FE20"/>
  <anchor x="-155.65422379567264" y="1170" name="_top"/>
  <outline>
    <contour>
      <point x="176.13130352296946" y="1530.9303438423665" type="line"/>
      <point x="-84.91272879082624" y="1528.170131980161"/>
      <point x="-371.39960791832675" y="1444.9717568522917"/>
      <point x="-427.7520559300628" y="1155.163427073166" type="curve"/>
      <point x="-254.9610633711768" y="1156.1703486272456" type="line"/>
      <point x="-190.75271224555658" y="1331.708717676769"/>
      <point x="-10.6725295662973" y="1377.7820237719723"/>
      <point x="160.01915661451017" y="1378.9013869701166" type="curve"/>
    </contour>
  </outline>
</glyph>
<glyph name="uniFE27" format="2">
  <unicode hex="FE27"/>
  <outline>
    <contour>
      <point x="-136.14097109208905" y="-282.86227417258254" type="line"/>
      <point x="-277.3022941947298" y="-278.0763585303327"/>
      <point x="-444.86182093543243" y="-224.16308824004759"/>
      <point x="-529.6388234027605" y="-103.02794988339338" type="curve"/>
      <point x="-660.2982086980336" y="-100.49536056387804" type="line"/>
      <point x="-558.0670464841826" y="-290.007703063985"/>
      <point x="-355.8334861518272" y="-394.09355571701684"/>
      <point x="-144.57454082473106" y="-402.6532999065914" type="curve"/>
    </contour>
  </outline>
</glyph>
<glyph name="dieresismacroncomb" format="2">
  <outline>
    <contour>
      <point x="8.276246161587665" y="1675.9065752493514" type="line"/>
      <point x="-555.6555821041113" y="1675.9146882254583" type="line"/>
      <point x="-580.9755250296417" y="1534.0933874073464" type="line"/>
      <point x="-17.043696763942336" y="1534.085274431236" type="line"/>
    </contour>
    <contour>
      <point x="-621.7601564092375" y="1343.4725821570407" type="curve" smooth="yes"/>
      <point x="-623.7827616590748" y="1285.5098427753028"/>
      <point x="-586.2652140620736" y="1238.283668547296"/>
      <point x="-525.9197275710314" y="1239.8756156753059" type="curve" smooth="yes"/>
      <point x="-466.10521826160414" y="1241.4535553331891"/>
      <point x="-428.2070149172968" y="1289.0425479787166"/>
      <point x="-425.9736862746379" y="1346.4829369390893" type="curve" smooth="yes"/>
      <point x="-423.68545476328757" y="1405.3354074321292"/>
      <point x="-460.3963424591889" y="1454.9126578579826"/>
      <point x="-522.4375984915107" y="1453.1405087648338" type="curve" smooth="yes"/>
      <point x="-582.9190594553622" y="1451.4129137247921"/>
      <point x="-619.7577404503979" y="1400.856747636386"/>
    </contour>
    <contour>
      <point x="-235.9200406280745" y="1342.474811616947" type="curve" smooth="yes"/>
      <point x="-238.0550879073666" y="1284.0012418539916"/>
      <point x="-201.51272527808078" y="1236.1561808706074"/>
      <point x="-140.21106556172975" y="1237.8753172333793" type="curve" smooth="yes"/>
      <point x="-80.38510410188132" y="1239.553069291958"/>
      <point x="-42.27591501370863" y="1288.0878239036238"/>
      <point x="-40.133457415357405" y="1345.4847188043877" type="curve" smooth="yes"/>
      <point x="-37.95548440767422" y="1403.8330790776067"/>
      <point x="-75.6407283667071" y="1452.7813410221518"/>
      <point x="-136.72907546428476" y="1451.1400236502927" type="curve" smooth="yes"/>
      <point x="-197.2188914824909" y="1449.5147875689718"/>
      <point x="-233.82271711528654" y="1399.9152223890937"/>
    </contour>
  </outline>
</glyph>
<glyph name="dotdblsubnosp_uni1ABD" format="2">
  <anchor x="-647.8392381098182" y="0" name="_bottom"/>
  <anchor x="-708.6585244675782" y="-352" name="bottom"/>
  <outline>
    <contour>
      <point x="-1049.5880127920443" y="-469.24918454385886" type="curve"/>
      <point x="-1033.0831057707285" y="-403.0420357038125" type="line"/>
      <point x="-1076.5541457011511" y="-365.53967175964533"/>
      <point x="-1089.613591322883" y="-319.40752274796534"/>
      <point x="-1081.4311952791752" y="-261.8700937890633" type="curve" smooth="yes"/>
      <point x="-1072.2534925718585" y="-197.33381190935157"/>
      <point x="-1035.9604412774897" y="-146.089586762182"/>
      <point x="-983.7990588286317" y="-109.06581273517313" type="curve"/>
      <point x="-984.1865699451907" y="-37.07085443824292" type="line"/>
      <point x="-1079.8605112792393" y="-74.44714569722248"/>
      <point x="-1159.3618476014979" y="-155.16926895217327"/>
      <point x="-1166.0021260346973" y="-262.1865798865057" type="curve" smooth="yes"/>
      <point x="-1171.3419402938996" y="-348.2451041874674"/>
      <point x="-1124.6042053153021" y="-428.4952587670291"/>
    </contour>
    <contour>
      <point x="-399.66248100596647" y="-471.92113902952855" type="line"/>
      <point x="-302.7986036952781" y="-434.0573329131976"/>
      <point x="-224.20224440651458" y="-351.76917076057566"/>
      <point x="-217.66860153732023" y="-243.75448427524933" type="curve" smooth="yes"/>
      <point x="-212.50312134974325" y="-158.35836848233168"/>
      <point x="-259.99306713975295" y="-79.94003985415875"/>
      <point x="-334.2131483366711" y="-39.825397967538926" type="curve"/>
      <point x="-351.2720087796797" y="-109.00772953970642" type="line"/>
      <point x="-307.62258666088434" y="-143.25611711023532"/>
      <point x="-294.85970553199775" y="-188.74851088807264"/>
      <point x="-302.4035427811401" y="-244.03368547501805" type="curve" smooth="yes"/>
      <point x="-311.64950555315147" y="-311.7929238033844"/>
      <point x="-347.2256587531632" y="-362.5279303206214"/>
      <point x="-400.5800025115102" y="-402.8182131364771" type="curve"/>
    </contour>
    <contour>
      <point x="-962.4131752643862" y="-247.55698277593163" type="curve" smooth="yes"/>
      <point x="-964.4338189885505" y="-305.7827160710199"/>
      <point x="-927.2957729588016" y="-352.81478994608767"/>
      <point x="-866.5826101659967" y="-351.11864711591215" type="curve" smooth="yes"/>
      <point x="-807.1456375180016" y="-349.4581571930221"/>
      <point x="-768.8170978379862" y="-301.7070078612785"/>
      <point x="-766.58756083402" y="-244.53382864266038" type="curve" smooth="yes"/>
      <point x="-764.3021656233774" y="-185.9282483221739"/>
      <point x="-801.3799230169855" y="-136.1977497971743"/>
      <point x="-863.0604985537877" y="-137.85097275286313" type="curve" smooth="yes"/>
      <point x="-923.9779820184607" y="-139.48374257042914"/>
      <point x="-960.4102635587291" y="-189.84220535497195"/>
    </contour>
    <contour>
      <point x="-614.4034111334955" y="-248.5230306384214" type="curve" smooth="yes"/>
      <point x="-616.5314122424714" y="-306.7427641730285"/>
      <point x="-579.6180191226912" y="-354.7354061656279"/>
      <point x="-518.6871983435232" y="-353.1318308781321" type="curve" smooth="yes"/>
      <point x="-458.44264346952804" y="-351.546316713597"/>
      <point x="-420.71911467370165" y="-303.21982088048617"/>
      <point x="-418.5769152494258" y="-245.49885627299767" type="curve" smooth="yes"/>
      <point x="-416.40147525174945" y="-186.88223370806747"/>
      <point x="-453.69456062591075" y="-138.1146280930712"/>
      <point x="-515.1652237096746" y="-139.86398402869077" type="curve" smooth="yes"/>
      <point x="-575.2796950958063" y="-141.57474493577035"/>
      <point x="-612.3135426476168" y="-191.34656308066712"/>
    </contour>
  </outline>
</glyph>
<glyph name="dotmacroncomb.lc" format="2">
  <anchor x="-242.80512552476705" y="1867" name="mkmktop_acc"/>
  <outline>
    <contour>
      <point x="-425.7456536984071" y="1366.4706545976662" type="curve" smooth="yes"/>
      <point x="-427.9713461595114" y="1307.7226397442373"/>
      <point x="-390.3230801429002" y="1260.1060455246377"/>
      <point x="-329.0750398582352" y="1261.816553713469" type="curve" smooth="yes"/>
      <point x="-269.30440862818455" y="1263.4858014754452"/>
      <point x="-231.0541735784089" y="1312.1288499127472"/>
      <point x="-228.98876087450998" y="1369.495736938436" type="curve" smooth="yes"/>
      <point x="-226.8897206949273" y="1427.7966279018694"/>
      <point x="-264.53379349133115" y="1476.7001260640977"/>
      <point x="-325.5549577246521" y="1475.064048275233" type="curve" smooth="yes"/>
      <point x="-386.028840688392" y="1473.4426439974472"/>
      <point x="-423.5597648406743" y="1424.1680379182355"/>
    </contour>
    <contour>
      <point x="23.34636989544117" y="1734.9055034966436" type="line"/>
      <point x="-541.5552446273159" y="1734.9137055081876" type="line"/>
      <point x="-566.8717394832051" y="1593.094524666801" type="line"/>
      <point x="-1.970124960450832" y="1593.0863226552565" type="line"/>
    </contour>
  </outline>
</glyph>
<glyph name="uni02E5_uni02E7_uni02E9" format="2">
  <advance width="1071"/>
  <outline>
    <contour>
      <point x="912" y="0" type="line"/>
      <point x="912" y="1456" type="line"/>
      <point x="735" y="1456" type="line"/>
      <point x="735" y="313" type="line"/>
      <point x="190" y="1456" type="line"/>
      <point x="67" y="1377" type="line"/>
      <point x="735" y="0" type="line"/>
    </contour>
  </outline>
</glyph>
<glyph name="uni02E5_uni02E8_uni02E9" format="2">
  <advance width="1071"/>
  <outline>
    <contour>
      <point x="912" y="0" type="line"/>
      <point x="912" y="1456" type="line"/>
      <point x="735" y="1456" type="line"/>
      <point x="735" y="208" type="line"/>
      <point x="536" y="442" type="line"/>
      <point x="205" y="1456" type="line"/>
      <point x="71" y="1398" type="line"/>
      <point x="403" y="372" type="line"/>
      <point x="735" y="0" type="line"/>
    </contour>
  </outline>
</glyph>
<glyph name="uni02E5_uni02E9_uni02E7" format="2">
  <advance width="1071"/>
  <outline>
    <contour>
      <point x="912" y="0" type="line"/>
      <point x="912" y="1456" type="line"/>
      <point x="735" y="1456" type="line"/>
      <point x="735" y="807" type="line"/>
      <point x="544" y="375" type="line"/>
      <point x="272" y="1456" type="line"/>
      <point x="135" y="1410" type="line"/>
      <point x="507" y="0" type="line"/>
      <point x="735" y="501" type="line"/>
      <point x="735" y="0" type="line"/>
    </contour>
  </outline>
</glyph>
<glyph name="uni02E8_uni02E5" format="2">
  <advance width="819"/>
  <outline>
    <contour>
      <point x="660" y="1456" type="line"/>
      <point x="483" y="1456" type="line"/>
      <point x="135" y="384" type="line"/>
      <point x="269" y="325" type="line"/>
      <point x="483" y="1014" type="line"/>
      <point x="483" y="0" type="line"/>
      <point x="660" y="0" type="line"/>
    </contour>
  </outline>
</glyph>
<glyph name="uni02E9_uni02E8_uni02E7" format="2">
  <advance width="1071"/>
  <outline>
    <contour>
      <point x="912" y="1456" type="line"/>
      <point x="735" y="1456" type="line"/>
      <point x="735" y="826" type="line"/>
      <point x="90" y="111" type="line"/>
      <point x="183" y="0" type="line"/>
      <point x="735" y="618" type="line"/>
      <point x="735" y="0" type="line"/>
      <point x="912" y="0" type="line"/>
    </contour>
  </outline>
</glyph>
